<svg fill="none" height="40" viewBox="0 0 124 40" width="124" xmlns="http://www.w3.org/2000/svg"><rect fill="#000" height="40" rx="8" width="124"/><g fill="#fff"><path d="m28.7047 20.7633c.012-.92.2623-1.8221.7274-2.6223.4651-.8003 1.13-1.4726 1.9328-1.9545-.51-.7111-1.1828-1.2964-1.9651-1.7092-.7822-.4128-1.6522-.6419-2.5409-.669-1.8953-.1934-3.7334 1.1069-4.6998 1.1069-.984 0-2.4709-1.0875-4.0724-1.0553-1.036.0327-2.0457.3268-2.9307.8538-.8849.5269-1.615 1.2687-2.1191 2.153-2.1836 3.6903-.5547 9.1139 1.5366 12.0971 1.0456 1.4614 2.2695 3.0927 3.8687 3.0347 1.5662-.0634 2.1507-.9747 4.0416-.9747 1.8711 0 2.4214.9747 4.0537.9382 1.6796-.0269 2.7384-1.4669 3.7477-2.9413.7521-1.0409 1.3308-2.1913 1.7148-3.4087-.9761-.4031-1.8091-1.0779-2.3951-1.9401-.586-.8623-.8991-1.8738-.9002-2.9086zm-3.0841-8.9161c.9161-1.0738 1.3674-2.45384 1.2581-3.8472-1.3996.14348-2.6926.79652-3.6211 1.82901-.4539.50439-.8016 1.09109-1.0231 1.72669s-.3126 1.3076-.268 1.9775c.7001.0071 1.3928-.1411 2.0257-.4334.633-.2922 1.1898-.7209 1.6284-1.2537z"/><path d="m45.5859 19.1406-3.3984 9.8594h-2.0547l4.2813-11.375h1.3125zm2.8438 9.8594-3.4063-9.8594-.1484-1.5156h1.3203l4.2969 11.375zm-.1641-4.2188v1.5547h-6.1875v-1.5547zm4.5625-2.6093v10.0781h-1.8828v-11.7031h1.7344zm5.5078 2.5234v.1641c0 .6146-.0729 1.1849-.2187 1.7109-.1406.5208-.3516.9766-.6328 1.3672-.2761.3854-.6172.6849-1.0235.8984-.4062.2136-.875.3203-1.4062.3203-.5261 0-.987-.0963-1.3828-.289-.3907-.1979-.7214-.4766-.9922-.836-.2708-.3593-.4896-.7812-.6563-1.2656-.1614-.4896-.276-1.026-.3437-1.6094v-.6328c.0677-.6198.1823-1.1823.3437-1.6875.1667-.5052.3855-.9401.6563-1.3047.2708-.3645.6015-.6458.9922-.8437.3906-.1979.8463-.2969 1.3672-.2969.5312 0 1.0026.1042 1.414.3125.4115.2031.7578.4948 1.0391.875.2812.375.4922.8281.6328 1.3594.1406.526.2109 1.112.2109 1.7578zm-1.8828.1641v-.1641c0-.3906-.0364-.7526-.1093-1.0859-.073-.3386-.1876-.6354-.3438-.8906-.1562-.2553-.3568-.4532-.6016-.5938-.2395-.1458-.5286-.2188-.8672-.2188-.3333 0-.6197.0573-.8593.1719-.2396.1094-.4401.263-.6016.461-.1614.1979-.2864.4297-.375.6953-.0885.2604-.151.5442-.1875.8515v1.5157c.0625.375.1693.7187.3203 1.0312.1511.3125.3646.5625.6407.75.2812.1823.6406.2734 1.0781.2734.3385 0 .6276-.0729.8672-.2187.2395-.1458.4349-.3464.5859-.6016.1562-.2604.2708-.5599.3438-.8984.0729-.3385.1093-.6979.1093-1.0781zm4.875-2.6875v10.0781h-1.8828v-11.7031h1.7344zm5.5078 2.5234v.1641c0 .6146-.0729 1.1849-.2187 1.7109-.1406.5208-.3516.9766-.6328 1.3672-.2761.3854-.6172.6849-1.0235.8984-.4062.2136-.875.3203-1.4062.3203-.5261 0-.987-.0963-1.3828-.289-.3907-.1979-.7214-.4766-.9922-.836-.2708-.3593-.4896-.7812-.6563-1.2656-.1614-.4896-.276-1.026-.3437-1.6094v-.6328c.0677-.6198.1823-1.1823.3437-1.6875.1667-.5052.3855-.9401.6563-1.3047.2708-.3645.6015-.6458.9922-.8437.3906-.1979.8463-.2969 1.3672-.2969.5312 0 1.0026.1042 1.414.3125.4115.2031.7578.4948 1.0391.875.2812.375.4922.8281.6328 1.3594.1406.526.2109 1.112.2109 1.7578zm-1.8828.1641v-.1641c0-.3906-.0364-.7526-.1093-1.0859-.073-.3386-.1876-.6354-.3438-.8906-.1562-.2553-.3568-.4532-.6016-.5938-.2395-.1458-.5286-.2188-.8672-.2188-.3333 0-.6197.0573-.8593.1719-.2396.1094-.4401.263-.6016.461-.1614.1979-.2864.4297-.375.6953-.0885.2604-.151.5442-.1875.8515v1.5157c.0625.375.1693.7187.3203 1.0312.1511.3125.3646.5625.6407.75.2812.1823.6406.2734 1.0781.2734.3385 0 .6276-.0729.8672-.2187.2395-.1458.4349-.3464.5859-.6016.1562-.2604.2708-.5599.3438-.8984.0729-.3385.1093-.6979.1093-1.0781zm12.6407 1.2109c0-.2344-.0365-.4427-.1094-.625-.0677-.1823-.1901-.3489-.3672-.5-.1771-.151-.4271-.2969-.75-.4375-.3177-.1458-.724-.2943-1.2188-.4453-.5416-.1667-1.0416-.3516-1.5-.5547-.4531-.2083-.8489-.4479-1.1875-.7187-.3385-.2761-.6015-.5912-.789-.9453-.1875-.3594-.2813-.7735-.2813-1.2422 0-.4636.0964-.8855.2891-1.2657.1979-.3802.4765-.7083.8359-.9843.3646-.2813.7943-.4974 1.2891-.6485.4948-.1562 1.0417-.2343 1.6406-.2343.8438 0 1.5703.1562 2.1797.4687.6146.3125 1.0859.7318 1.4141 1.2578.3333.5261.5 1.1068.5 1.7422h-1.9453c0-.375-.0808-.7057-.2422-.9922-.1563-.2917-.3959-.5208-.7188-.6875-.3177-.1667-.7213-.25-1.2109-.25-.4636 0-.849.0703-1.1563.211-.3073.1406-.5364.3307-.6875.5703-.151.2395-.2265.5104-.2265.8125 0 .2135.0494.4088.1484.5859.099.1719.25.3333.4531.4844.2031.1458.4584.2838.7657.414.3072.1302.6692.2552 1.0859.375.6302.1875 1.1797.3959 1.6484.625.4688.224.8594.4792 1.1719.7657.3125.2864.5469.6119.7031.9765.1563.3594.2344.7683.2344 1.2266 0 .4792-.0964.9114-.2891 1.2969-.1927.3802-.4687.7057-.8281.9765-.3542.2657-.7812.4714-1.2812.6172-.4948.1406-1.0469.2109-1.6563.2109-.5469 0-1.0859-.0729-1.6172-.2187-.526-.1458-1.0052-.3672-1.4375-.6641-.4323-.302-.776-.677-1.0312-1.125-.2552-.4531-.3828-.9817-.3828-1.5859h1.9609c0 .3698.0625.6849.1875.9453.1302.2604.3099.474.5391.6406.2291.1615.4948.2813.7968.3594.3073.0781.6355.1172.9844.1172.4583 0 .8412-.0651 1.1484-.1953.3126-.1302.5469-.3125.7032-.5469.1562-.2344.2344-.5052.2344-.8125zm6.8906-5.5234v1.375h-4.7656v-1.375zm-3.3906-2.0703h1.8828v8.1875c0 .2604.0364.4609.1093.6015.0782.1354.1849.2266.3203.2735.1355.0468.2943.0703.4766.0703.1302 0 .2552-.0078.375-.0235.1198-.0156.2162-.0312.2891-.0468l.0078 1.4375c-.1563.0468-.3386.0885-.5469.125-.2031.0364-.4375.0546-.7031.0546-.4323 0-.8151-.0755-1.1485-.2265-.3333-.1563-.5937-.4089-.7812-.7578-.1875-.349-.2812-.8125-.2812-1.3907zm3.7968 6.3906v-.1797c0-.6094.0886-1.1745.2656-1.6953.1771-.5261.4323-.9818.7657-1.3672.3385-.3906.75-.6927 1.2343-.9062.4896-.2188 1.0417-.3282 1.6563-.3282.6198 0 1.1719.1094 1.6563.3282.4895.2135.9036.5156 1.2421.9062.3386.3854.5964.8411.7735 1.3672.1771.5208.2656 1.0859.2656 1.6953v.1797c0 .6094-.0885 1.1745-.2656 1.6953s-.4349.9766-.7735 1.3672c-.3385.3854-.75.6875-1.2343.9062-.4844.2136-1.0339.3203-1.6485.3203-.6198 0-1.1745-.1067-1.664-.3203-.4844-.2187-.8959-.5208-1.2344-.9062-.3386-.3906-.5964-.8464-.7735-1.3672-.177-.5208-.2656-1.0859-.2656-1.6953zm1.8828-.1797v.1797c0 .3802.0391.7396.1172 1.0781.0782.3386.2005.6354.3672.8906s.3802.4558.6406.6016c.2605.1458.5704.2187.9297.2187.349 0 .6511-.0729.9063-.2187.2604-.1458.4739-.3464.6406-.6016s.2891-.552.3672-.8906c.0833-.3385.125-.6979.125-1.0781v-.1797c0-.375-.0417-.7292-.125-1.0625-.0781-.3385-.2031-.638-.375-.8984-.1667-.2605-.3802-.4636-.6406-.6094-.2552-.1511-.5599-.2266-.9141-.2266s-.6615.0755-.9219.2266c-.2552.1458-.4661.3489-.6328.6094-.1667.2604-.289.5599-.3672.8984-.0781.3333-.1172.6875-.1172 1.0625zm8.9454-2.5313v6.8438h-1.8829v-8.4531h1.7969zm2.5859-1.664-.0156 1.75c-.1146-.0208-.2396-.0365-.375-.0469-.1302-.0104-.2605-.0156-.3907-.0156-.3229 0-.6067.0469-.8515.1406-.2448.0886-.4505.2188-.6172.3906-.1615.1667-.2865.3698-.375.6094-.0886.2396-.1406.5078-.1563.8047l-.4296.0312c0-.5312.052-1.0234.1562-1.4765s.2604-.8516.4688-1.1953c.2135-.3438.4791-.612.7968-.8047.3229-.1927.6953-.2891 1.1172-.2891.1146 0 .237.0104.3672.0313.1354.0208.237.0442.3047.0703zm4.2503 8.664c-.625 0-1.19-.1015-1.696-.3046-.5-.2084-.9267-.4974-1.2809-.8672-.3489-.3698-.6172-.8047-.8047-1.3047s-.2812-1.0391-.2812-1.6172v-.3125c0-.6615.0963-1.2604.289-1.7969.1928-.5364.461-.9948.8047-1.375.3438-.3854.7501-.6797 1.2191-.8828.468-.2031.976-.3047 1.523-.3047.604 0 1.133.1016 1.586.3047s.828.4896 1.125.8594c.302.3646.526.7995.672 1.3047.151.5052.227 1.0625.227 1.6718v.8047h-6.5318v-1.3515h4.6718v-.1485c-.01-.3385-.078-.6562-.203-.9531-.12-.2969-.305-.5364-.555-.7187s-.583-.2735-1-.2735c-.312 0-.591.0677-.836.2032-.239.1302-.44.3203-.601.5703-.162.25-.287.552-.375.9062-.084.349-.125.7422-.125 1.1797v.3125c0 .3698.049.7135.148 1.0313.104.3124.255.5859.453.8203.198.2343.438.4192.719.5547.281.1302.602.1953.961.1953.453 0 .857-.0912 1.211-.2735s.661-.4401.922-.7734l.992.9609c-.182.2657-.419.5209-.711.7657-.292.2395-.648.4348-1.07.5859-.417.151-.901.2265-1.453.2265z"/><path d="m42.5273 11.2734h-.789v-.5586h.6797c.2422 0 .4388-.0351.5898-.1054.1511-.0729.2604-.1732.3281-.3008.0703-.1302.1055-.2813.1055-.45313 0-.15365-.0391-.29427-.1172-.42188-.0755-.1276-.1927-.22916-.3515-.30468-.1589-.07813-.3633-.11719-.6133-.11719-.1875 0-.3581.03385-.5117.10156-.1537.06771-.2761.16276-.3672.28516-.0886.12239-.1328.26692-.1328.43359h-.9805c0-.24739.0521-.46875.1562-.66406.1068-.19792.2513-.36589.4336-.50391.1849-.13802.3972-.24349.6368-.3164.2421-.07552.4973-.11328.7656-.11328.3125 0 .595.03515.8476.10546.2526.06771.4701.16927.6524.30469s.3216.30469.4179.50781c.0964.20052.1446.4336.1446.69922 0 .19534-.0456.37894-.1367.55074-.0886.1719-.2162.323-.3829.4532-.1666.1302-.3671.233-.6015.3086-.2318.0729-.4896.1093-.7735.1093zm-.789-.3398h.789c.3151 0 .5951.0325.8399.0976.2448.0652.4518.1602.6211.2852s.2982.28.3867.4648c.0885.1823.1328.392.1328.629 0 .2656-.0534.5026-.1601.7109-.1042.2057-.2526.3802-.4454.5234-.1927.1433-.4205.2513-.6835.3243-.2605.0729-.5469.1093-.8594.1093-.2526 0-.5026-.0312-.75-.0937-.2448-.0651-.4675-.1641-.668-.2969-.1979-.1354-.3568-.3073-.4766-.5156-.1197-.2084-.1796-.4584-.1796-.75h.9843c0 .1614.0456.3099.1367.4453.0938.1328.2214.2396.3829.3203.164.0781.3541.1172.5703.1172.2474 0 .457-.0391.6289-.1172.1745-.0781.3073-.1849.3984-.3203.0938-.1354.1406-.2878.1406-.457 0-.1615-.0247-.3008-.0742-.418-.0469-.1198-.1172-.2162-.2109-.2891-.0938-.0755-.2096-.1315-.3477-.1679-.138-.0365-.2968-.0547-.4765-.0547h-.6797zm6.4883 2.2187v-2.0156c0-.151-.0274-.2812-.0821-.3906s-.138-.194-.25-.2539c-.1093-.0599-.2474-.0899-.414-.0899-.1537 0-.2865.0261-.3985.0782-.1119.0521-.1992.1224-.2617.2109s-.0937.1888-.0937.3008h-.9375c0-.1667.0403-.3281.1211-.4844.0807-.1562.1979-.2956.3515-.418.1537-.12235.3373-.21871.5508-.28902s.4531-.10547.7187-.10547c.3178 0 .599.05339.8438.16016.2474.10677.4414.26823.582.48433.1433.2136.2149.4818.2149.8047v1.8789c0 .1927.013.3659.039.5196.0287.151.069.2825.1211.3945v.0625h-.9648c-.0443-.1016-.0794-.2305-.1055-.3867-.0234-.1589-.0351-.3125-.0351-.461zm.1367-1.7226.0078.582h-.6758c-.1745 0-.3281.0169-.4609.0508-.1328.0313-.2435.0781-.3321.1406-.0885.0625-.1549.138-.1992.2266-.0442.0885-.0664.1888-.0664.3008 0 .1119.0261.2148.0781.3086.0521.0911.1276.1627.2266.2148.1016.0521.224.0781.3672.0781.1927 0 .3607-.039.5039-.1172.1458-.0807.2604-.1783.3437-.2929.0834-.1172.1277-.2279.1329-.3321l.3047.418c-.0313.1068-.0847.2214-.1602.3438s-.1745.2395-.2969.3515c-.1198.1094-.2643.1992-.4336.2696-.1666.0703-.3593.1054-.5781.1054-.276 0-.5221-.0547-.7383-.164-.2161-.112-.3854-.2618-.5078-.4493-.1224-.1901-.1836-.4049-.1836-.6445 0-.2239.0417-.4219.125-.5937.0859-.1745.2109-.3204.375-.4375.1667-.1172.3698-.2058.6094-.2657.2396-.0625.513-.0937.8203-.0937zm5.1055-1.65626v.74996h-1.8438v3.4766h-.9414v-4.22656zm1.9921.81246v5.0391h-.9414v-5.85156h.8672zm2.7539 1.2618v.082c0 .3073-.0364.5924-.1093.8555-.0703.2604-.1758.4882-.3164.6836-.1381.1927-.3086.3424-.5118.4492-.2031.1067-.4375.1601-.7031.1601-.263 0-.4935-.0482-.6914-.1445-.1953-.099-.3607-.2383-.4961-.418s-.2448-.3906-.3281-.6328c-.0807-.2448-.138-.513-.1719-.8047v-.3164c.0339-.3099.0912-.5911.1719-.8437.0833-.2526.1927-.4701.3281-.6524s.3008-.32289.4961-.42185.4232-.14844.6836-.14844c.2656 0 .5013.05209.707.15625.2058.10156.3789.24744.5196.43754.1406.1875.2461.414.3164.6797.0703.263.1054.5559.1054.8789zm-.9414.082v-.082c0-.1954-.0182-.3763-.0546-.543-.0365-.1693-.0938-.3177-.1719-.4453s-.1784-.2266-.3008-.2969c-.1198-.0729-.2643-.1094-.4336-.1094-.1667 0-.3099.0287-.4297.086-.1198.0547-.22.1315-.3008.2304-.0807.099-.1432.2149-.1875.3477-.0442.1302-.0755.2721-.0937.4258v.7578c.0312.1875.0846.3594.1601.5156.0756.1563.1823.2813.3203.375.1407.0912.3204.1367.5391.1367.1693 0 .3138-.0364.4336-.1093.1198-.073.2175-.1732.293-.3008.0781-.1302.1354-.28.1719-.4492.0364-.1693.0546-.349.0546-.5391zm3.4219 1.6094 1.1485-3.76566h1.0078l-1.6954 4.87106c-.039.1042-.0898.2175-.1523.3399s-.1445.2383-.2461.3476c-.0989.112-.2226.2019-.3711.2696-.1484.0703-.3281.1054-.539.1054-.0834 0-.1641-.0078-.2422-.0234-.0756-.013-.1472-.0274-.2149-.043l-.0039-.7187c.0261.0026.0573.0052.0938.0078.039.0026.0703.0039.0937.0039.1563 0 .2865-.0195.3906-.0586.1042-.0365.1888-.0964.254-.1797.0677-.0833.125-.1953.1718-.3359zm-.6484-3.76566 1.0039 3.16406.168.9922-.6524.168-1.5352-4.32426zm5.5937 2.20706h-.8125v-.4766h.6563c.1666 0 .2995-.0221.3984-.0664.1016-.0443.1732-.1055.2149-.1836.0442-.0807.0664-.1745.0664-.2812 0-.0938-.0222-.1823-.0664-.2657-.0417-.0859-.1133-.1562-.2149-.2109s-.2396-.082-.414-.082c-.1433 0-.2722.0234-.3868.0703-.1119.0468-.2005.112-.2656.1953s-.0976.1797-.0976.2891h-.9415c0-.2631.0743-.4896.2227-.6797.151-.1901.3529-.33598.6055-.43754s.5299-.15234.832-.15234c.2578 0 .4896.02734.6953.08203.2057.05208.3802.13021.5234.23435.1459.1016.2566.2292.3321.3828.0781.1511.1172.3269.1172.5274 0 .1432-.0339.2786-.1016.4062s-.1654.2409-.293.3399c-.1276.0963-.2825.1719-.4648.2265-.1797.0547-.3815.0821-.6055.0821zm-.8125-.2735h.8125c.25 0 .4714.0248.6641.0742.1927.0469.3542.1172.4844.211.1302.0937.2278.2096.2929.3476.0677.1355.1016.2917.1016.4688 0 .1979-.043.3763-.1289.5352-.0833.1562-.2031.289-.3594.3984-.1536.1094-.3372.1927-.5508.25-.2135.0573-.4492.0859-.707.0859-.2813 0-.5547-.0469-.8203-.1406-.263-.0937-.4805-.2383-.6524-.4336-.1692-.1979-.2539-.4492-.2539-.7539h.9414c0 .1068.0326.207.0977.3008.0651.0937.1589.1706.2812.2304.1224.0573.2696.086.4415.086.177 0 .3216-.0274.4335-.082.112-.0573.1954-.1316.25-.2227.0547-.0937.0821-.1927.0821-.2969 0-.1406-.0274-.2539-.0821-.3398-.0546-.086-.138-.1485-.25-.1875-.1119-.0417-.2526-.0625-.4218-.0625h-.6563zm4.6289.918 1.6602-2.85156h.9414v4.22656h-.9414v-2.8555l-1.6602 2.8555h-.9414v-4.22656h.9414zm6.0586-2.85156v4.22656h-.9453v-4.22656zm1.3867 0v.74216h-3.6953v-.74216zm2.7032 4.30466c-.3125 0-.5951-.0508-.8477-.1523-.25-.1042-.4635-.2487-.6406-.4336-.1745-.1849-.3086-.4024-.4024-.6524-.0937-.25-.1406-.5195-.1406-.8086v-.1562c0-.3307.0482-.6302.1446-.8984.0963-.2683.2304-.4974.4023-.6875.1719-.1927.375-.33988.6094-.44144.2343-.10157.4883-.15235.7617-.15235.3021 0 .5664.05078.793.15235.2265.10156.414.24474.5625.42964.151.1823.263.3998.3359.6524.0755.2526.1133.5312.1133.8359v.4024h-3.2657v-.6758h2.336v-.0742c-.0052-.1693-.0391-.3282-.1016-.4766-.0599-.1484-.1523-.2682-.2773-.3594-.125-.0911-.2917-.1367-.5-.1367-.1563 0-.2956.0339-.418.1016-.1198.0651-.22.1601-.3008.2851-.0807.125-.1432.2761-.1875.4532-.0416.1744-.0625.371-.0625.5898v.1562c0 .1849.0248.3568.0743.5157.052.1562.1276.2929.2265.4101.099.1172.2188.2097.3594.2774.1406.0651.3008.0976.4805.0976.2265 0 .4283-.0455.6054-.1367.1771-.0911.3308-.22.461-.3867l.4961.4805c-.0912.1328-.2097.2604-.3555.3828-.1458.1198-.3242.2174-.5352.2929-.2083.0756-.4505.1133-.7265.1133zm7.4726-1.8867h-1.3515l-.0078-.6641h1.1093c.1823 0 .3321-.0182.4492-.0546.1198-.0365.2084-.0912.2657-.1641.0573-.0755.0859-.1667.0859-.2734 0-.0886-.0169-.1654-.0508-.2305-.0338-.0677-.0859-.1224-.1562-.1641-.0677-.0442-.1537-.0755-.2578-.0937-.1016-.0209-.2201-.0313-.3555-.0313h-.7695v3.4844h-.9414v-4.22656h1.7109c.2708 0 .5143.02344.7305.07031.2187.04687.4049.11849.5586.21485.1536.0963.2708.2187.3515.3672.0834.1458.125.3177.125.5156 0 .1302-.0286.2526-.0859.3672-.0547.1146-.1367.2161-.2461.3047-.1094.0885-.2435.1614-.4024.2187-.1588.0547-.3411.0886-.5468.1016zm0 1.8086h-1.625l.375-.7422h1.25c.1667 0 .3047-.0208.4141-.0625s.1901-.1015.2422-.1797c.0547-.0807.082-.1758.082-.2851 0-.112-.026-.2084-.0781-.2891s-.1328-.1419-.2422-.1836c-.1068-.0443-.2461-.0664-.418-.0664h-1.0742l.0078-.6641h1.2774l.2695.2579c.2682.0182.4909.0755.668.1718.177.0964.3099.2175.3984.3633s.1328.3047.1328.4766c0 .1979-.0377.3724-.1133.5234-.0729.1511-.1823.2774-.3281.3789-.1432.099-.319.1745-.5273.2266-.2084.0495-.4453.0742-.711.0742z"/></g></svg>