<svg fill="none" height="40" viewBox="0 0 124 40" width="124" xmlns="http://www.w3.org/2000/svg"><rect fill="#000" height="40" rx="8" width="124"/><path d="m14.5379 13.4693c-.0005-.0627.0774-.1959.1733-.2961.228-.2383.4513-.2307.6678.0228.0963.1128.5795.9769 1.0739 1.9204.6897 1.3166.9313 1.7045 1.0387 1.668.077-.0261.5465-.1973 1.0433-.3804 1.2721-.4688 2.5059-.6841 3.9349-.6871 1.7368-.0034 2.9867.2327 4.4731.8451.3959.1631.6798.2925.7244.2455.0207-.0217.535-.9254 1.0542-1.9017.7534-1.4171.9912-1.7926 1.1791-1.8615.1858-.0684.2726-.0513.4123.0809.0973.092.177.2467.177.3436 0 .097-.4315.9908-.9589 1.9862s-.9589 1.8287-.9589 1.8517c0 .0231.2059.1737.4576.3348 3.1155 1.7653 4.691 6.1722 4.9703 9.3585h-11.618-11.382c0-1.4596.3378-3.5625.7419-4.4766.8199-1.8546 2.3235-3.5267 3.9501-4.6494.4195-.2897.7627-.5589.7627-.5984 0-.0394-.431-.8864-.9578-1.8821-.5268-.9956-.9584-1.8615-.959-1.9242z" fill="#32de84"/><path d="m17.8912 22.2081c0 .5643-.4377 1.0218-.9776 1.0218s-.9776-.4575-.9776-1.0218.4377-1.0217.9776-1.0217.9776.4574.9776 1.0217z" fill="#000"/><path d="m29.0639 22.2081c0 .5643-.4377 1.0218-.9776 1.0218s-.9776-.4575-.9776-1.0218.4377-1.0217.9776-1.0217.9776.4574.9776 1.0217z" fill="#000"/><g fill="#fff"><path d="m51.904 27.728h-4.656l-.8 2.272h-1.904l3.984-11.136h2.112l3.984 11.136h-1.92zm-.512-1.488-1.808-5.168-1.824 5.168zm9.4123-5.2c.6933 0 1.312.144 1.856.432.5546.288.9866.7147 1.296 1.28.3093.5653.464 1.248.464 2.048v5.2h-1.808v-4.928c0-.7893-.1974-1.392-.592-1.808-.3947-.4267-.9334-.64-1.616-.64-.6827 0-1.2267.2133-1.632.64-.3947.416-.592 1.0187-.592 1.808v4.928h-1.824v-8.816h1.824v1.008c.2986-.3627.6773-.6453 1.136-.848.4693-.2027.9653-.304 1.488-.304zm5.3346 4.512c0-.8853.1813-1.6693.544-2.352.3733-.6827.8746-1.2107 1.504-1.584.64-.384 1.3493-.576 2.128-.576.576 0 1.1413.128 1.696.384.5653.2453 1.0133.576 1.344.992v-4.256h1.84v11.84h-1.84v-1.328c-.2987.4267-.7147.7787-1.248 1.056-.5227.2773-1.1254.416-1.808.416-.768 0-1.472-.192-2.112-.576-.6294-.3947-1.1307-.9387-1.504-1.632-.3627-.704-.544-1.4987-.544-2.384zm7.216.032c0-.608-.128-1.136-.384-1.584-.2454-.448-.5707-.7893-.976-1.024-.4054-.2347-.8427-.352-1.312-.352-.4694 0-.9067.1173-1.312.352-.4054.224-.736.56-.992 1.008-.2454.4373-.368.96-.368 1.568s.1226 1.1413.368 1.6c.256.4587.5866.8107.992 1.056.416.2347.8533.352 1.312.352.4693 0 .9066-.1173 1.312-.352.4053-.2347.7306-.576.976-1.024.256-.4587.384-.992.384-1.6zm6.0597-3.12c.2667-.448.6187-.7947 1.056-1.04.448-.256.976-.384 1.584-.384v1.888h-.464c-.7146 0-1.2586.1813-1.632.544-.3626.3627-.544.992-.544 1.888v4.64h-1.824v-8.816h1.824zm8.1407 7.68c-.832 0-1.584-.1867-2.256-.56-.672-.384-1.2-.9173-1.584-1.6-.384-.6933-.576-1.4933-.576-2.4 0-.896.1973-1.6907.592-2.384.3946-.6933.9333-1.2267 1.616-1.6.6826-.3733 1.4453-.56 2.288-.56.8426 0 1.6053.1867 2.288.56.6826.3733 1.2213.9067 1.616 1.6.3946.6933.592 1.488.592 2.384s-.2027 1.6907-.608 2.384c-.4054.6933-.96 1.232-1.664 1.616-.6934.3733-1.4614.56-2.304.56zm0-1.584c.4693 0 .9066-.112 1.312-.336.416-.224.752-.56 1.008-1.008s.384-.992.384-1.632-.1227-1.1787-.368-1.616c-.2454-.448-.5707-.784-.976-1.008-.4054-.224-.8427-.336-1.312-.336-.4694 0-.9067.112-1.312.336-.3947.224-.7094.56-.944 1.008-.2347.4373-.352.976-.352 1.616 0 .9493.24 1.6853.72 2.208.4906.512 1.104.768 1.84.768zm7.3071-8.544c-.3307 0-.608-.112-.832-.336s-.336-.5013-.336-.832.112-.608.336-.832.5013-.336.832-.336c.32 0 .592.112.816.336s.336.5013.336.832-.112.608-.336.832-.496.336-.816.336zm.896 1.168v8.816h-1.824v-8.816zm1.7867 4.368c0-.8853.1814-1.6693.544-2.352.3734-.6827.8747-1.2107 1.504-1.584.6399-.384 1.3489-.576 2.1279-.576.576 0 1.141.128 1.696.384.565.2453 1.013.576 1.344.992v-4.256h1.84v11.84h-1.84v-1.328c-.299.4267-.715.7787-1.248 1.056-.523.2773-1.125.416-1.808.416-.768 0-1.472-.192-2.1119-.576-.6293-.3947-1.1306-.9387-1.504-1.632-.3626-.704-.544-1.4987-.544-2.384zm7.2159.032c0-.608-.128-1.136-.384-1.584-.245-.448-.571-.7893-.976-1.024s-.843-.352-1.312-.352-.907.1173-1.312.352c-.405.224-.736.56-.9919 1.008-.2453.4373-.368.96-.368 1.568s.1227 1.1413.368 1.6c.2559.4587.5869.8107.9919 1.056.416.2347.853.352 1.312.352.469 0 .907-.1173 1.312-.352s.731-.576.976-1.024c.256-.4587.384-.992.384-1.6z"/><path d="m49.0703 13.2227v.7773h-4.1914v-.7773zm-3.9492 0v2.1757h-.9375l-.0352-2.1757zm4.707 0-.0586 2.1718h-.9218v-2.1718zm-1.4453-4.9102v.78125h-2.625v-.78125zm.75 0v5.6875h-.9766v-5.6875zm-3.5703 0h.9805l-.1368 2.3047c-.0208.3646-.0585.6927-.1132.9844-.0547.2916-.1211.5533-.1992.7851-.0756.2292-.1615.4323-.2579.6094-.0963.1745-.1992.3255-.3086.4531-.1093.1276-.2213.237-.3359.3281-.112.0886-.2226.1628-.332.2227h-.5235v-.7773h.2539c.0704-.0651.1485-.1589.2344-.2813.086-.125.1693-.2878.25-.4883.0834-.2031.1563-.4544.2188-.7539s.1054-.6601.1289-1.082zm5.2344 3.6211v-.0898c0-.3047.0442-.5873.1328-.8477.0885-.263.2161-.4909.3828-.6836.1693-.1953.375-.34635.6172-.45312.2448-.10938.5208-.16407.8281-.16407.3099 0 .586.05469.8281.16407.2448.10677.4519.25782.6211.45312.1693.1927.2982.4206.3868.6836.0885.2604.1328.543.1328.8477v.0898c0 .3047-.0443.5872-.1328.8476-.0886.2605-.2175.4883-.3868.6836-.1692.1928-.375.3438-.6172.4532-.2421.1067-.5169.1601-.8242.1601-.3099 0-.5872-.0534-.832-.1601-.2422-.1094-.4479-.2604-.6172-.4532-.1693-.1953-.2982-.4231-.3867-.6836-.0886-.2604-.1328-.5429-.1328-.8476zm.9414-.0898v.0898c0 .1901.0195.3698.0586.5391.039.1692.1002.3177.1836.4453.0833.1276.1901.2278.3203.3008.1302.0729.2851.1093.4648.1093.1745 0 .3255-.0364.4532-.1093.1302-.073.2369-.1732.3203-.3008.0833-.1276.1445-.2761.1836-.4453.0416-.1693.0625-.349.0625-.5391v-.0898c0-.1876-.0209-.3646-.0625-.5313-.0391-.1693-.1016-.319-.1875-.4492-.0834-.1302-.1901-.2318-.3204-.3047-.1276-.0755-.2799-.1133-.457-.1133s-.3307.0378-.4609.1133c-.1276.0729-.2331.1745-.3164.3047-.0834.1302-.1446.2799-.1836.4492-.0391.1667-.0586.3437-.0586.5313zm6.0039 1.4843c.1536 0 .2917-.0299.414-.0898.125-.0625.2253-.1485.3008-.2578.0782-.1094.1211-.2357.1289-.3789h.8868c-.0053.2734-.086.5221-.2422.7461-.1563.2239-.3633.4023-.6211.5351-.2578.1302-.543.1953-.8555.1953-.3229 0-.6042-.0547-.8437-.164-.2396-.112-.4388-.2657-.5977-.461s-.2786-.4205-.3594-.6758c-.0781-.2552-.1172-.5286-.1172-.8203v-.1367c0-.2917.0391-.5651.1172-.8203.0808-.2578.2005-.4844.3594-.6797s.3581-.34764.5977-.45702c.2395-.11198.5195-.16797.8398-.16797.3385 0 .6354.06771.8906.20313.2552.13276.4558.31896.6016.55856.1484.237.2252.5131.2305.8282h-.8868c-.0078-.1563-.0468-.2969-.1171-.4219-.0678-.1276-.1641-.2292-.2891-.3047-.1224-.0755-.2695-.1133-.4414-.1133-.1901 0-.3477.0391-.4727.1172-.125.0755-.2226.1797-.2929.3125-.0704.1302-.1211.2773-.1524.4414-.0286.1615-.043.3294-.043.5039v.1367c0 .1745.0144.3438.043.5078.0287.1641.0781.3112.1485.4414.0729.1277.1718.2305.2968.3086.125.0756.2839.1133.4766.1133zm4.914-3.55466v4.22656h-.9453v-4.22656zm1.3868 0v.74216h-3.6953v-.74216zm2.4023 3.76566 1.1485-3.76566h1.0078l-1.6954 4.87106c-.039.1042-.0898.2175-.1523.3399s-.1445.2383-.2461.3476c-.0989.112-.2226.2019-.3711.2696-.1484.0703-.3281.1054-.539.1054-.0834 0-.1641-.0078-.2422-.0234-.0756-.013-.1472-.0274-.2149-.043l-.0039-.7187c.0261.0026.0573.0052.0938.0078.039.0026.0703.0039.0937.0039.1563 0 .2865-.0195.3906-.0586.1042-.0365.1888-.0964.254-.1797.0677-.0833.125-.1953.1718-.3359zm-.6484-3.76566 1.0039 3.16406.168.9922-.6524.168-1.5352-4.32426zm6.6797 0v.74996h-2.086v-.74996zm-1.8633 0v4.22656h-.9414v-4.22656zm2.6015 0v4.22656h-.9453v-4.22656zm4.3829 1.76566v.7421h-2.1875v-.7421zm-1.9141-1.76566v4.22656h-.9414v-4.22656zm2.5937 0v4.22656h-.9414v-4.22656zm1.3243 2.16016v-.0898c0-.3047.0442-.5873.1328-.8477.0885-.263.2161-.4909.3828-.6836.1693-.1953.375-.34635.6172-.45312.2448-.10938.5208-.16407.8281-.16407.3099 0 .5859.05469.8281.16407.2448.10677.4518.25782.6211.45312.1693.1927.2982.4206.3867.6836.0886.2604.1328.543.1328.8477v.0898c0 .3047-.0442.5872-.1328.8476-.0885.2605-.2174.4883-.3867.6836-.1693.1928-.375.3438-.6172.4532-.2422.1067-.5169.1601-.8242.1601-.3099 0-.5872-.0534-.832-.1601-.2422-.1094-.4479-.2604-.6172-.4532-.1693-.1953-.2982-.4231-.3867-.6836-.0886-.2604-.1328-.5429-.1328-.8476zm.9414-.0898v.0898c0 .1901.0195.3698.0586.5391.039.1692.1002.3177.1836.4453.0833.1276.1901.2278.3203.3008.1302.0729.2851.1093.4648.1093.1745 0 .3255-.0364.4531-.1093.1302-.073.237-.1732.3204-.3008.0833-.1276.1445-.2761.1835-.4453.0417-.1693.0625-.349.0625-.5391v-.0898c0-.1876-.0208-.3646-.0625-.5313-.039-.1693-.1015-.319-.1875-.4492-.0833-.1302-.1901-.2318-.3203-.3047-.1276-.0755-.2799-.1133-.457-.1133s-.3307.0378-.4609.1133c-.1276.0729-.2331.1745-.3164.3047-.0834.1302-.1446.2799-.1836.4492-.0391.1667-.0586.3437-.0586.5313zm7.5351-2.07036h.9414l-.0468 1.48826c-.0131.4323-.0625.8034-.1485 1.1133-.0859.3099-.1979.5716-.3359.7852-.138.2109-.2943.3841-.4688.5195-.1718.1354-.3528.2422-.5429.3203h-.2774v-.7422l.1328-.0078c.112-.1198.2084-.2396.2891-.3594.0833-.1224.1536-.2565.2109-.4023.0573-.1485.1016-.3216.1328-.5195.0339-.198.056-.4336.0664-.7071zm.25 0h2.6797v4.22656h-.9375v-3.4297h-1.7422zm-1.3437 3.47656h4.6015v2.0078h-.9414v-1.2578h-2.707v1.2578h-.957zm8.6133-3.47656v.74996h-2.0625v-.74996zm.7382 0v4.22656h-.9414v-4.22656zm-3.0312 0h.9297l-.1133 2.08986c-.0156.3099-.0469.5833-.0938.8203-.0442.2344-.1041.4362-.1796.6055-.0756.1666-.168.302-.2774.4062s-.237.181-.3828.2305-.3099.0742-.4922.0742h-.293l-.0039-.7734.1485-.0118c.0963-.0078.1797-.0325.25-.0742.0703-.0442.1302-.1067.1797-.1875.052-.0807.0937-.1849.125-.3125.0338-.1276.0599-.2786.0781-.4531.0208-.1745.0364-.3776.0469-.6094zm5.4219 2.16016h.9765l-1.1992 2.0664h-.9727zm.6875-2.16016h1.8129v4.22656h-.938v-3.4844h-.8749c-.1771 0-.323.0313-.4375.0938-.1146.0599-.1993.1393-.2539.2383-.0547.0963-.0821.1953-.0821.2968 0 .1016.0248.1993.0742.293.0521.0937.1316.1706.2383.2305.1094.0599.2461.0898.4102.0898h1.2417v.6875h-1.2417c-.2604 0-.4935-.0325-.6992-.0976-.2058-.0678-.3802-.1602-.5235-.2774-.1432-.1198-.2526-.2591-.3281-.418-.0755-.1614-.1133-.3372-.1133-.5273 0-.1953.0391-.375.1172-.5391.0781-.164.1901-.3073.3359-.4297.1485-.1223.3282-.2161.5391-.2812.2135-.06771.4544-.10156.7227-.10156z"/></g></svg>