<svg fill="none" height="40" viewBox="0 0 124 40" width="124" xmlns="http://www.w3.org/2000/svg"><rect fill="#000" height="40" rx="8" width="124"/><path clip-rule="evenodd" d="m21.52 32c-5.4306 0-8.1459 0-9.8329-1.6871-1.6871-1.687-1.6871-4.4024-1.6871-9.833v-.96c0-5.4306 0-8.1459 1.6871-9.83293 1.687-1.68697 4.4023-1.68697 9.8329-1.68697h.96c5.4306 0 8.1459 0 9.8329 1.68697 1.6871 1.68703 1.6871 4.40233 1.6871 9.83293v.96c0 5.4306 0 8.146-1.6871 9.833-1.687 1.6871-4.4023 1.6871-9.8329 1.6871z" fill="#07f" fill-rule="evenodd"/><g fill="#fff"><path d="m23.8782 22.7903c-.6466-.1615-1.1-.74-1.1-1.4034v-7.8158c0-.7535.7121-1.3061 1.4465-1.1226l4.6511 1.1618c.6466.1615 1.1001.74 1.1001 1.4034v7.8158c0 .7535-.7121 1.3061-1.4465 1.1227z"/><path d="m15.1244 26.3892c-.6467-.1616-1.1001-.74-1.1001-1.4034v-7.8158c0-.7535.712-1.3062 1.4465-1.1227l4.6511 1.1619c.6466.1615 1.1.7399 1.1 1.4033v7.8158c0 .7535-.712 1.3062-1.4465 1.1227z"/><path d="m19.5013 24.5898c-.6466-.1616-1.1-.74-1.1-1.4034v-7.8158c0-.7535.712-1.3061 1.4465-1.1227l4.6511 1.1619c.6466.1615 1.1.74 1.1 1.4034v7.8157c0 .7536-.712 1.3062-1.4465 1.1228z"/></g><path d="m22.5454 25.3523c-.2036-.0519-.3486-.232-.3557-.4421l-.2023-5.9689c-.0586-.7899-.645-1.4182-1.2578-1.6032-.0344-.0104-.0711.0036-.0915.0332-.0207.03-.0127.0717.0162.094.1513.1172.5678.4995.5678 1.1588l-.0012 6.3925z" fill="#2b71f6"/><path d="m26.9235 23.5511c-.2035-.0509-.3486-.2305-.3557-.4401l-.2024-5.9685c-.0585-.79-.6449-1.4182-1.2578-1.6033-.0344-.0104-.0711.0036-.0915.0332-.0207.0301-.0127.0718.0162.0941.1513.1172.5678.4994.5678 1.1588l-.0012 6.3946z" fill="#2b71f6"/><path d="m48.053 28.9405h-1.8791l-2.9816-4.2511h-1.5685v4.2511h-1.5995v-11.1828h3.8513c.7453 0 1.4131.1481 2.0033.4441.5901.2962 1.0456.7086 1.3665 1.2373.3313.5182.497 1.1157.497 1.7924 0 .846-.2537 1.5704-.7609 2.1731-.5074.5922-1.1855.9835-2.0344 1.1738zm-6.4292-9.6759v3.9339h2.2518c.6626 0 1.1957-.1798 1.5994-.5394.4142-.3702.6213-.846.6213-1.4276s-.2071-1.0521-.6213-1.4117c-.4037-.3701-.9368-.5552-1.5994-.5552zm10.6734 9.8345c-.5693 0-1.0818-.1427-1.5374-.4283-.4555-.296-.8127-.6979-1.0715-1.2054-.2589-.5182-.3882-1.0999-.3882-1.7449v-4.9807h1.5219v4.8539c0 .6239.1707 1.1314.5124 1.5226.3417.3913.7816.5869 1.32.5869.559 0 1.025-.2008 1.3977-.6027.3727-.4018.559-.9041.559-1.5068v-4.8539h1.5219v8.2007h-1.0871l-.3571-1.2373c-.2589.4443-.6005.7879-1.025 1.0311-.4142.2432-.8696.3648-1.3666.3648zm9.5093 0c-1.0042 0-1.8791-.2643-2.6246-.793-.735-.5394-1.2371-1.269-1.5063-2.1891l1.5374-.2538c.3002.5922.6574 1.0311 1.0716 1.3166.4141.2749.9214.4125 1.5219.4125.6108 0 1.1077-.1376 1.4907-.4125.3831-.2855.5746-.6715.5746-1.1579 0-.3595-.1086-.6609-.326-.9042-.2071-.2432-.4711-.4388-.792-.5869-.321-.148-.7403-.312-1.258-.4916-.6935-.2327-1.263-.4653-1.7082-.698-.4451-.2326-.8231-.5605-1.1336-.9834-.3003-.4336-.4504-.9835-.4504-1.6497 0-.6239.1501-1.1685.4504-1.6338.3105-.4759.735-.8407 1.2734-1.0945s1.1388-.3807 1.8014-.3807c.9214 0 1.7134.2485 2.376.7455.6626.4864 1.1336 1.158 1.4132 2.0145l-1.5064.2538c-.207-.4864-.5021-.8566-.8851-1.1103-.3831-.2645-.8335-.3966-1.3511-.3966-.5591 0-1.0198.1375-1.3821.4124-.3624.2644-.5436.6293-.5436 1.0945 0 .349.1036.645.3107.8883.2174.2432.4813.4388.792.5869.3209.1481.7454.3172 1.2733.5075.6729.2327 1.2321.4706 1.6772.7138.4555.2327.8386.5658 1.1492.9993.3106.4336.4659.9783.4659 1.6339 0 .6344-.1656 1.1896-.497 1.6655-.3209.4758-.7661.8459-1.3355 1.1104-.559.2537-1.1854.3806-1.879.3806zm10.1401-1.5228-.1398 1.3642h-1.4132c-.8386 0-1.4753-.2115-1.9101-.6344-.4348-.4231-.6522-1.0311-.6522-1.8242v-4.3621h-1.3822v-1.38h1.3822l.4193-2.3793h1.1026v2.3793h2.4536v1.38h-2.4536v4.3621c0 .7296.3468 1.0944 1.0404 1.0944zm5.0751 1.5228c-.8178 0-1.5476-.1798-2.1895-.5393-.642-.3595-1.1441-.8618-1.5064-1.5069-.3624-.645-.5436-1.38-.5436-2.2048 0-.8249.1812-1.5598.5436-2.2048.3623-.6451.8644-1.1474 1.5064-1.507.6419-.3701 1.3717-.5551 2.1895-.5551.8179 0 1.5478.185 2.1897.5551.6419.3596 1.1441.8619 1.5064 1.507.3623.645.5435 1.3799.5435 2.2048 0 .8248-.1812 1.5598-.5435 2.2048-.3623.6451-.8645 1.1474-1.5064 1.5069s-1.3718.5393-2.1897.5393zm0-1.4276c.7869 0 1.4236-.259 1.9102-.7772.4969-.5181.7453-1.2002.7453-2.0462s-.2484-1.5281-.7453-2.0462c-.4866-.5288-1.1233-.7932-1.9102-.7932-.7867 0-1.4234.2644-1.91.7932-.4866.5181-.7299 1.2002-.7299 2.0462 0 .8353.2433 1.5174.7299 2.0462.4866.5182 1.1233.7772 1.91.7772zm5.8717 1.269v-8.2007h1.1025l.3262 1.1738c.2381-.4124.5331-.7085.8852-.8883.3519-.1903.7712-.2855 1.2578-.2855h.3727l.1242 1.4911h-.8696c-.5591 0-.9783.1639-1.2578.4916-.2796.3279-.4194.772-.4194 1.3325v4.8855zm12.7692-4.1558c0 .2114-.0051.3754-.0155.4916h-6.6311c.0829.7297.3624 1.3113.8387 1.7449.4762.4335 1.0818.6503 1.8168.6503.5074 0 .9578-.1004 1.3512-.3013.4037-.2115.7091-.4865.9162-.8249l1.4287.238c-.3105.7401-.8127 1.3113-1.5064 1.7131-.6832.4019-1.4442.6027-2.2828.6027-.7972 0-1.5115-.1798-2.1431-.5393-.6315-.3701-1.1233-.8776-1.4752-1.5227-.3521-.6451-.5281-1.3747-.5281-2.189 0-.8249.176-1.5598.5281-2.2048.3519-.6451.8385-1.1474 1.4598-1.507.6211-.3701 1.3303-.5551 2.1274-.5551.7869 0 1.4909.185 2.1121.5551.6314.3596 1.1233.8619 1.4753 1.507.352.6344.5279 1.3482.5279 2.1414zm-4.1153-2.8235c-.6108 0-1.1388.1851-1.584.5552-.4348.3701-.7246.8671-.8696 1.491h4.9073c-.1346-.6133-.4245-1.1051-.8697-1.4752-.4348-.3807-.9627-.571-1.584-.571z" fill="#fff"/><path d="m40 14.4818v-2.0039h.1313c.1702 0 .3062-.0417.4084-.1249.1021-.0832.1872-.2496.2553-.4991.0729-.2545.1288-.6289.1677-1.1232l.2115-2.7307h3.2383v4.4779h.7512v2.0039h-.7512v-1.3066h-3.6613v1.3066zm3.6612-2.0039v-3.78054h-1.7942l-.153 2.07004c-.0585.8271-.2092 1.3972-.4522 1.7105zm3.8904.7707c-.384 0-.7268-.0832-1.0284-.2496-.3013-.1663-.5372-.3989-.7074-.6974-.1701-.2985-.2553-.6386-.2553-1.0203s.0852-.7219.2553-1.0204c.1702-.29849.4061-.53095.7074-.69734.3016-.17128.6444-.25692 1.0284-.25692.3841 0 .7269.08564 1.0284.25692.3014.16639.5373.39885.7074.69734.1702.2985.2552.6387.2552 1.0204s-.085.7218-.2552 1.0203c-.1701.2985-.406.5311-.7074.6974-.3015.1664-.6443.2496-1.0284.2496zm0-.6607c.3696 0 .6686-.1199.8971-.3597.2334-.2398.35-.5554.35-.9469s-.1166-.7072-.35-.947c-.2285-.2447-.5275-.367-.8971-.367-.3695 0-.6685.1223-.8971.367-.2285.2398-.3427.5555-.3427.947 0 .3866.1142.7022.3427.9469.2286.2398.5276.3597.8971.3597zm4.4934.6607c-.3744 0-.7124-.0832-1.0138-.2496-.2966-.1712-.5275-.4062-.6929-.7047-.1652-.2985-.2479-.6362-.2479-1.013 0-.3817.0827-.7219.2479-1.0204.1654-.29849.3963-.53095.6929-.69734.2966-.17128.6345-.25692 1.0138-.25692.4036 0 .7634.09787 1.0793.29362.3209.19576.5495.47714.6856.84424l-.6709.1101c-.0875-.1762-.2262-.3181-.4158-.4258-.1847-.1077-.3962-.1615-.6345-.1615-.3695 0-.6709.1223-.9044.367-.2284.2447-.3427.5604-.3427.947s.1143.7022.3427.9469c.2335.2398.5349.3597.9044.3597.248 0 .4668-.0562.6564-.1688.1945-.1126.3355-.2618.423-.4478l.671.1101c-.1361.372-.3695.6607-.7001.8663-.3258.2006-.6904.3009-1.094.3009zm4.0008-.0734h-.7147v-3.1345h-1.3055v-.66065h3.3257v.66065h-1.3055zm4.6822-3.79515h.7365l-1.5753 4.36765c-.1166.3279-.2698.5653-.4594.7121-.1897.1468-.4425.2202-.7585.2202h-.5616l-.0657-.6606h.6711c.141 0 .2503-.0319.3281-.0955.0778-.0587.1435-.1639.1969-.3156l.0802-.2202-1.6774-4.00805h.7658l1.1961 2.92895h.1021zm2.0977 3.79515h-.7148v-3.79515h3.2091v3.79515h-.7148v-3.1345h-1.7795zm6.011-2.2463v-1.54885h.7148v3.79515h-.7148v-1.5856h-1.8161v1.5856h-.7146v-3.79515h.7146v1.54885zm3.4722 2.3197c-.3841 0-.7269-.0832-1.0283-.2496-.3015-.1663-.5374-.3989-.7075-.6974-.1702-.2985-.2552-.6386-.2552-1.0203s.085-.7219.2552-1.0204c.1701-.29849.406-.53095.7075-.69734.3014-.17128.6442-.25692 1.0283-.25692.3842 0 .7268.08564 1.0284.25692.3015.16639.5372.39885.7074.69734.1701.2985.2553.6387.2553 1.0204s-.0852.7218-.2553 1.0203c-.1702.2985-.4059.5311-.7074.6974-.3016.1664-.6442.2496-1.0284.2496zm0-.6607c.3695 0 .6685-.1199.8971-.3597.2333-.2398.3501-.5554.3501-.9469s-.1168-.7072-.3501-.947c-.2286-.2447-.5276-.367-.8971-.367-.3696 0-.6686.1223-.8971.367-.2285.2398-.3428.5555-.3428.947 0 .3866.1143.7022.3428.9469.2285.2398.5275.3597.8971.3597zm7.0112-1.402c.1946.0734.3501.1933.4669.3597.1214.1614.1822.3523.1822.5725 0 .2007-.0583.3817-.175.5432-.1118.1615-.2698.2888-.4741.3817-.2042.0881-.4376.1322-.7002.1322h-1.8013v-3.79515h1.7357c.248 0 .4692.04404.6637.13212.1945.08809.3453.20799.4522.35971.1118.15172.1677.32542.1677.52122 0 .1859-.0461.3474-.1385.4845-.0875.1321-.214.2348-.3793.3083zm-1.7869-1.19657v.93227h1.0211c.1654 0 .3015-.0416.4084-.1248.1071-.0881.1605-.2006.1605-.3377 0-.137-.0534-.2496-.1605-.3376-.1069-.0881-.243-.13217-.4084-.13217zm1.0867 2.57657c.1897 0 .3428-.049.4596-.1468.1166-.0979.175-.2251.175-.3817s-.0584-.2839-.175-.3817c-.1168-.0979-.2699-.1469-.4596-.1469h-1.0867v1.0571z" fill="#fff"/></svg>